<svg xmlns="http://www.w3.org/2000/svg" viewBox="0 0 160 170">
<defs><linearGradient id="g" x1="0" y1="0" x2="1" y2="1">
<stop offset="0" stop-color="#ffe0ad"/><stop offset=".45" stop-color="#e9b877"/><stop offset="1" stop-color="#a96d47"/></linearGradient></defs>
<g transform="translate(4,5)" fill="none" stroke="url(#g)" stroke-width="5.2" stroke-linecap="round" stroke-linejoin="round">
<path d="M105 30C84 33 73 47 77 65C81 84 101 88 101 108C101 128 88 143 71 154"/>
<path d="M105 30C123 34 133 48 131 63C129 77 119 87 106 92"/>
<path d="M103 30C108 22 117 19 126 22"/><path d="M126 22L142 29L126 34"/>
<circle cx="116" cy="26" r="3" fill="#edc58c" stroke="none"/>
<path d="M106 20C103 13 104 8 109 3"/><path d="M115 20C116 12 120 7 125 4"/><path d="M123 21C128 14 133 11 139 12"/>
<circle cx="109" cy="3" r="3.4" fill="#edc58c" stroke="none"/><circle cx="125" cy="4" r="3.4" fill="#edc58c" stroke="none"/><circle cx="139" cy="12" r="3.4" fill="#edc58c" stroke="none"/>
<path d="M83 102C62 82 37 78 14 91C37 94 58 107 73 128"/>
<path d="M82 108C57 94 34 96 15 110C39 108 59 119 72 139"/>
<path d="M80 116C58 108 39 114 24 130C46 123 61 131 70 148"/>
</g></svg>